<?xml version="1.0" encoding="utf-8"?>
<!-- Generator: Adobe Illustrator 23.0.1, SVG Export Plug-In . SVG Version: 6.00 Build 0)  -->
<svg version="1.1" id="Layer_1" xmlns:svgjs="http://svgjs.com/svgjs"
	 xmlns="http://www.w3.org/2000/svg" xmlns:xlink="http://www.w3.org/1999/xlink" x="0px" y="0px" viewBox="0 0 121 121"
	 style="enable-background:new 0 0 121 121;" xml:space="preserve">
<style type="text/css">
	.st0{fill:#F44647;}
</style>
<g>
	<g>
		<g>
			<path class="st0" d="M97.2,46.4C95.6,26.2,77.9,11,57.7,12.6C39.6,14,25.2,28.4,23.9,46.4c-2.7,0.6-5.2,1.9-7.1,3.9
				c-5.6,5.6-5.6,14.7,0,20.4c2.1,2.1,4.9,3.5,7.8,4c0.2,0.1,0.5,0.2,0.7,0.2c0.1,0,0.2,0,0.3,0c0,0,0.1,0,0.1,0
				c0.4,0,0.8,0.1,1.2,0.1h3.2c0.9,0,1.6-0.7,1.6-1.6V47.7c0-0.9-0.7-1.6-1.6-1.6h-3c1.7-18.5,18.1-32,36.5-30.3
				C79.7,17.3,92.4,30,93.9,46.1h-3c-0.9,0-1.6,0.7-1.6,1.6v25.6c0,0.9,0.7,1.6,1.6,1.6h3.2v3.2c0,12.3-9.6,21.7-22.6,22.3
				C70.5,97,67,95,63.6,96c-3.4,0.9-5.4,4.4-4.5,7.8c0.9,3.4,4.4,5.4,7.8,4.5c2.2-0.6,4-2.4,4.5-4.6c14.8-0.6,25.8-11.4,25.8-25.5
				v-3.6c2.6-0.6,5.1-1.9,7-3.8c2.7-2.7,4.2-6.4,4.2-10.2C108.5,53.7,103.8,47.9,97.2,46.4z M28.5,49.3v22.4h-1.6
				c-0.5,0-0.9,0-1.4-0.1c-6.1-0.7-10.5-6.3-9.8-12.5c0.6-5.1,4.7-9.2,9.8-9.8c0.5-0.1,0.9-0.1,1.4-0.1L28.5,49.3L28.5,49.3z
				 M65.3,105.3c-1.8,0-3.2-1.4-3.2-3.2c0-1.8,1.4-3.2,3.2-3.2c1.8,0,3.2,1.4,3.2,3.2C68.5,103.9,67.1,105.3,65.3,105.3z M95.5,71.6
				c-0.5,0.1-0.9,0.1-1.4,0.1h-1.6V49.3h1.6c6.2,0,11.2,5,11.2,11.2C105.3,66.1,101.1,70.9,95.5,71.6z"/>
		</g>
	</g>
</g>
</svg>
