<?xml version="1.0" encoding="utf-8"?>
<!-- Generator: Adobe Illustrator 23.0.1, SVG Export Plug-In . SVG Version: 6.00 Build 0)  -->
<svg version="1.1" id="Layer_1" xmlns:svgjs="http://svgjs.com/svgjs"
	 xmlns="http://www.w3.org/2000/svg" xmlns:xlink="http://www.w3.org/1999/xlink" x="0px" y="0px" viewBox="0 0 121 121"
	 style="enable-background:new 0 0 121 121;" xml:space="preserve">
<style type="text/css">
	.st0{fill:#F44647;}
</style>
<g>
	<g>
		<g>
			<path class="st0" d="M68.9,48.2c-0.1,0.1-0.3,0.2-0.4,0.2c-3.4,1.9-7.4,2.9-11.2,3.6c-4.2,0.8-8.5,1.2-12.7,1.3
				c-1.2,0-2.4,0.1-3.6,0.1c-8.3,0-16.6-1-22.7-2.9c-2-0.6-4-1.4-5.7-2.5v9c0,2.5,9.8,7.1,28.4,7.1c4,0,8-0.2,12-0.7
				c3-0.4,5.9-0.9,8.8-1.8c1.9-0.6,3.8-1.2,5.5-2.2c0.7-0.4,1.3-0.8,1.8-1.4c0.4-0.5,0.4-1.1,0.4-1.7c0-1.1,0-2.3,0-3.4
				c0-1.6,0-3.3,0-4.9C69.3,48,69.1,48.1,68.9,48.2z"/>
		</g>
	</g>
	<g>
		<g>
			<path class="st0" d="M68.9,62.4c-0.1,0.1-0.3,0.2-0.4,0.2c-3.4,1.9-7.3,2.9-11.1,3.6c-4.2,0.8-8.5,1.2-12.7,1.4
				c-1.3,0-2.5,0.1-3.8,0.1c-8.3,0-16.6-1-22.7-2.9c-2-0.6-4-1.4-5.7-2.5v9h0c0,2.5,9.8,7.1,28.4,7.1c4,0,8-0.2,12-0.7
				c3-0.4,5.9-0.9,8.8-1.8c1.9-0.6,3.8-1.2,5.5-2.2c1.1-0.6,2.2-1.5,2.2-2.8c0-0.9,0-1.9,0-2.8c0-1.9,0-3.8,0-5.7c0,0,0-0.1,0-0.1
				C69.3,62.2,69.1,62.3,68.9,62.4z"/>
		</g>
	</g>
	<g>
		<g>
			<path class="st0" d="M68.9,76.6c-3.4,2-7.3,3-11.1,3.7c-4.2,0.8-8.4,1.2-12.7,1.4c-1.4,0.1-2.8,0.1-4.2,0.1
				c-9.1,0-19.4-0.4-27.6-5c-0.1-0.1-0.3-0.2-0.4-0.2c-0.1-0.1-0.3-0.2-0.4-0.3v9c0,2.5,9.8,7.1,28.4,7.1c4,0,8-0.2,12-0.7
				c3-0.4,5.9-0.9,8.8-1.8c1.9-0.6,3.8-1.2,5.5-2.2c0.8-0.5,1.5-1,1.9-1.7c0.2-0.4,0.3-0.8,0.3-1.2c0-1,0-2,0-3c0-1.8,0-3.7,0-5.5
				C69.3,76.4,69.1,76.5,68.9,76.6z"/>
		</g>
	</g>
	<g>
		<g>
			<path class="st0" d="M108.1,55.3c-0.1,0.1-0.3,0.2-0.4,0.2c-0.5,0.3-1,0.5-1.5,0.8c-4.1,1.9-8.8,2.8-13.2,3.4
				c-5.6,0.8-11.4,1-17.1,0.7c-0.5,0-0.9,0-1.4-0.1c-0.5,0-1,0-1.5-0.1v10.6c0.7,0,1.3,0.1,2,0.1c0.3,0,0.7,0,1,0.1
				c1.4,0.1,2.7,0.1,4.1,0.1c18.7,0,28.4-4.6,28.4-7.1v-9C108.4,55.1,108.2,55.2,108.1,55.3z"/>
		</g>
	</g>
	<g>
		<g>
			<path class="st0" d="M108.1,69.5c-0.1,0.1-0.3,0.2-0.4,0.2c-0.5,0.3-1,0.5-1.5,0.8c-3.2,1.5-6.7,2.3-10.1,2.9
				c-4.2,0.8-8.4,1.1-12.6,1.2c-2.5,0.1-5.1,0.1-7.6,0c-0.5,0-0.9,0-1.4-0.1c-0.5,0-1,0-1.5-0.1v10.7c2.4,0.2,4.7,0.3,7.1,0.3
				c18.7,0,28.4-4.6,28.4-7.1v-9C108.4,69.3,108.2,69.4,108.1,69.5z"/>
		</g>
	</g>
	<g>
		<g>
			<path class="st0" d="M68.9,90.8c-0.1,0.1-0.3,0.2-0.4,0.2c-0.4,0.3-0.9,0.5-1.4,0.7c-0.1,0-0.2,0.1-0.3,0.1
				c-0.5,0.2-0.9,0.4-1.4,0.6c-0.3,0.1-0.5,0.2-0.8,0.3c-0.3,0.1-0.6,0.2-0.9,0.3c-6.1,1.9-14.4,2.9-22.7,2.9s-16.6-1-22.7-2.9
				c-1.7-0.5-3.3-1.2-4.9-2c-0.1-0.1-0.3-0.2-0.4-0.2c-0.1-0.1-0.3-0.2-0.4-0.3v9c0,2.5,9.8,7.1,28.4,7.1s28.4-4.6,28.4-7.1v-9
				C69.2,90.6,69.1,90.7,68.9,90.8z"/>
		</g>
	</g>
	<g>
		<g>
			<path class="st0" d="M69.3,42.2c-0.7-1.4-2.5-2.2-3.9-2.8c-4.9-2.2-10.5-3-15.7-3.4c-2.6-0.2-5.5-0.4-8.7-0.4
				c-18.7,0-28.4,4.6-28.4,7.1c0,2.5,9.8,7.1,28.4,7.1c3.1,0,6.2-0.1,9.3-0.4c2.5-0.2,5-0.6,7.5-1.1c1.9-0.4,3.8-0.9,5.7-1.5
				c1.3-0.5,2.6-1,3.8-1.7c0.8-0.5,1.7-1.1,2-2c0.1-0.1,0.1-0.3,0.1-0.4C69.4,42.5,69.3,42.4,69.3,42.2z"/>
		</g>
	</g>
	<g>
		<g>
			<path class="st0" d="M108.1,41c-0.1,0.1-0.3,0.2-0.4,0.2c-0.5,0.3-1,0.5-1.5,0.8C103,43.5,99.4,44.3,96,45
				c-4.2,0.8-8.4,1.1-12.7,1.2c-2.5,0.1-5,0.1-7.4,0c-0.6,0-1.1-0.1-1.7-0.1c-0.4,0-0.8,0-1.3-0.1v10.6c0.7,0,1.3,0.1,2,0.1
				c0.3,0,0.7,0,1,0.1c1.4,0.1,2.7,0.1,4.1,0.1c18.7,0,28.4-4.6,28.4-7.1v-9C108.4,40.9,108.2,41,108.1,41z"/>
		</g>
	</g>
	<g>
		<g>
			<ellipse class="st0" cx="80.1" cy="21.4" rx="28.4" ry="7.1"/>
		</g>
	</g>
	<g>
		<g>
			<path class="st0" d="M97.4,30.5c-4.2,0.8-8.5,1.3-12.7,1.5c-1.5,0.1-3.1,0.1-4.6,0.1c-8.3,0-16.6-1-22.7-2.9
				c-0.3-0.1-0.6-0.2-0.9-0.3c-0.3-0.1-0.5-0.2-0.8-0.3c-0.5-0.2-1-0.4-1.4-0.6c-0.1,0-0.2-0.1-0.3-0.1c-0.5-0.2-1-0.5-1.4-0.7
				c-0.1-0.1-0.3-0.2-0.4-0.2c-0.1-0.1-0.3-0.2-0.4-0.3v6.1c0.2,0,0.5,0.1,0.7,0.1c0.2,0,0.4,0.1,0.7,0.1c0.6,0.1,1.2,0.2,1.8,0.2
				c0.6,0.1,1.2,0.2,1.8,0.3c0.3,0.1,0.7,0.1,1,0.2c0.5,0.1,1,0.2,1.5,0.3c0.2,0,0.3,0.1,0.5,0.1c1.7,0.4,3.3,0.8,4.8,1.3
				c0.1,0,0.2,0.1,0.3,0.1c1.5,0.5,3.1,1.2,4.5,2.1c1.8,1.1,3.7,2.8,3.9,5.1c0.8,0.1,1.5,0.1,2.3,0.2c0.2,0,0.4,0,0.7,0
				c1.4,0.1,2.8,0.1,4.2,0.1c18.7,0,28.4-4.6,28.4-7.1v-9C105.2,28.7,101.2,29.7,97.4,30.5z"/>
		</g>
	</g>
</g>
</svg>
