<?xml version="1.0" encoding="utf-8"?>
<!-- Generator: Adobe Illustrator 23.0.1, SVG Export Plug-In . SVG Version: 6.00 Build 0)  -->
<svg version="1.1" id="Layer_1" xmlns:svgjs="http://svgjs.com/svgjs"
	 xmlns="http://www.w3.org/2000/svg" xmlns:xlink="http://www.w3.org/1999/xlink" x="0px" y="0px" viewBox="0 0 121 121"
	 style="enable-background:new 0 0 121 121;" xml:space="preserve">
<style type="text/css">
	.st0{fill:#F44647;}
</style>
<g>
	<g>
		<path class="st0" d="M18.8,47.7c0.5,1.7,1.2,3.4,2.1,5l-2.5,3.2c-0.8,1-0.7,2.5,0.2,3.5l4.3,4.3c0.9,0.9,2.4,1,3.5,0.2l3.2-2.5
			c1.6,0.9,3.4,1.7,5.2,2.2l0.5,4.1c0.2,1.3,1.3,2.3,2.6,2.3h6.1c1.3,0,2.4-1,2.6-2.3l0.5-3.9c1.9-0.5,3.8-1.3,5.5-2.2l3.1,2.4
			c1,0.8,2.5,0.7,3.5-0.2l4.3-4.3c0.9-0.9,1-2.4,0.2-3.5l-2.4-3c1-1.7,1.8-3.5,2.3-5.4l3.7-0.4c1.3-0.2,2.3-1.3,2.3-2.6v-6.1
			c0-1.3-1-2.4-2.3-2.6l-3.6-0.4c-0.5-1.9-1.2-3.7-2.2-5.4l2.2-2.8c0.8-1,0.7-2.5-0.2-3.5L59,19.2c-0.9-0.9-2.4-1-3.5-0.2l-2.7,2.2
			c-1.8-1-3.7-1.8-5.7-2.4l-0.4-3.5C46.6,14,45.5,13,44.1,13H38c-1.3,0-2.4,1-2.6,2.3L35,18.8c-2,0.5-4,1.4-5.8,2.5L26.4,19
			c-1-0.8-2.5-0.7-3.5,0.2l-4.3,4.3c-0.9,0.9-1,2.4-0.2,3.5l2.4,3c-0.9,1.7-1.7,3.5-2.1,5.4l-3.8,0.4c-1.3,0.2-2.3,1.3-2.3,2.6v6.1
			c0,1.3,1,2.4,2.3,2.6L18.8,47.7z M41.1,31c5.6,0,10.2,4.6,10.2,10.2s-4.6,10.2-10.2,10.2c-5.6,0-10.2-4.6-10.2-10.2
			S35.5,31,41.1,31z"/>
		<path class="st0" d="M101.9,49.2l-3.2-2.7c-1-0.8-2.5-0.8-3.4,0.1l-1.8,1.7c-1.5-0.7-3.1-1.2-4.8-1.5l-0.5-2.5
			c-0.3-1.3-1.4-2.2-2.7-2.1l-4.2,0.4c-1.3,0.1-2.3,1.2-2.4,2.5l-0.1,2.5c-1.6,0.6-3.2,1.4-4.6,2.4L72,48.5
			c-1.1-0.7-2.5-0.5-3.4,0.5l-2.7,3.3c-0.8,1-0.8,2.5,0.1,3.4l1.9,2c-0.6,1.5-1.1,3-1.4,4.6l-2.7,0.5c-1.3,0.3-2.2,1.4-2.1,2.7
			l0.4,4.2c0.1,1.3,1.2,2.3,2.5,2.4l2.9,0.1c0.5,1.4,1.2,2.7,2,3.9l-1.6,2.4c-0.7,1.1-0.5,2.5,0.5,3.4l3.2,2.7
			c1,0.8,2.5,0.8,3.4-0.1l2.1-2c1.4,0.6,2.9,1.1,4.4,1.4l0.6,2.9c0.3,1.3,1.4,2.2,2.7,2.1l4.2-0.4c1.3-0.1,2.3-1.2,2.4-2.5l0.1-2.8
			c1.5-0.5,3-1.3,4.4-2.2l2.3,1.5c1.1,0.7,2.5,0.5,3.4-0.5l2.7-3.2c0.8-1,0.8-2.5-0.1-3.4l-1.9-2c0.7-1.5,1.2-3,1.5-4.6l2.6-0.5
			c1.3-0.3,2.2-1.4,2.1-2.7l-0.4-4.2c-0.1-1.3-1.2-2.3-2.5-2.4l-2.6-0.1c-0.5-1.5-1.3-2.9-2.2-4.2l1.4-2.1
			C103.1,51.5,102.9,50,101.9,49.2z M85.9,73.7c-4.6,0.4-8.6-3-9-7.6c-0.4-4.6,3-8.6,7.6-9c4.6-0.4,8.6,3,9,7.6
			C93.9,69.2,90.5,73.3,85.9,73.7z"/>
		<path class="st0" d="M33.6,85c-1.3,0.1-2.3,1.2-2.3,2.5l0,2.6c0,1.3,0.9,2.4,2.2,2.6l1.9,0.2c0.3,1.2,0.8,2.3,1.4,3.3l-1.2,1.5
			c-0.8,1-0.8,2.5,0.2,3.4l1.8,1.9c0.9,0.9,2.4,1,3.4,0.2l1.5-1.2c1.1,0.6,2.2,1.1,3.4,1.5l0.2,2c0.1,1.3,1.2,2.3,2.5,2.3l2.6,0
			c1.3,0,2.4-0.9,2.6-2.2l0.2-1.9c1.3-0.3,2.5-0.8,3.7-1.4l1.4,1.2c1,0.8,2.5,0.8,3.4-0.2l1.9-1.8c0.9-0.9,1-2.4,0.2-3.4l-1.1-1.4
			c0.7-1.1,1.2-2.3,1.6-3.6l1.7-0.2c1.3-0.1,2.3-1.2,2.3-2.5l0-2.6c0-1.3-0.9-2.4-2.2-2.6l-1.7-0.2c-0.3-1.3-0.8-2.5-1.4-3.6l1-1.3
			c0.8-1,0.8-2.5-0.2-3.4L63,74.9c-0.9-0.9-2.4-1-3.4-0.2l-1.2,1c-1.2-0.7-2.4-1.3-3.7-1.6l-0.2-1.6c-0.1-1.3-1.2-2.3-2.5-2.3
			l-2.6,0c-1.3,0-2.4,0.9-2.6,2.2l-0.2,1.6c-1.4,0.4-2.7,0.9-3.9,1.6l-1.3-1.1c-1-0.8-2.5-0.8-3.4,0.2L36,76.4
			c-0.9,0.9-1,2.4-0.2,3.4l1.1,1.4c-0.6,1.1-1.1,2.3-1.5,3.6L33.6,85z M50.4,82.1c3.7,0,6.7,3.1,6.7,6.9c0,3.7-3.1,6.7-6.9,6.7
			c-3.7,0-6.7-3.1-6.7-6.9C43.6,85.1,46.7,82.1,50.4,82.1z"/>
	</g>
</g>
</svg>
