<?xml version="1.0" encoding="utf-8"?>
<!-- Generator: Adobe Illustrator 23.0.1, SVG Export Plug-In . SVG Version: 6.00 Build 0)  -->
<svg version="1.1" id="Layer_1" xmlns:svgjs="http://svgjs.com/svgjs"
	 xmlns="http://www.w3.org/2000/svg" xmlns:xlink="http://www.w3.org/1999/xlink" x="0px" y="0px" viewBox="0 0 121 114"
	 style="enable-background:new 0 0 121 114;" xml:space="preserve">
<style type="text/css">
	.st0{fill:#F44647;}
</style>
<g>
	<path class="st0" d="M16.2,50.6v8.8c0,0.9-0.7,1.6-1.6,1.6c-0.9,0-1.6-0.7-1.6-1.6v-8.8c0-0.9,0.7-1.6,1.6-1.6
		C15.5,49,16.2,49.7,16.2,50.6z M107.4,49c-0.9,0-1.6,0.7-1.6,1.6v8.8c0,0.9,0.7,1.6,1.6,1.6c0.9,0,1.6-0.7,1.6-1.6v-8.8
		C109,49.7,108.3,49,107.4,49z M65.4,99.8h-8.8c-0.9,0-1.6,0.7-1.6,1.6c0,0.9,0.7,1.6,1.6,1.6h8.8c0.9,0,1.6-0.7,1.6-1.6
		C67,100.5,66.3,99.8,65.4,99.8z M56.6,10.2h8.8c0.9,0,1.6-0.7,1.6-1.6C67,7.7,66.3,7,65.4,7h-8.8C55.7,7,55,7.7,55,8.6
		C55,9.5,55.7,10.2,56.6,10.2z M47.3,36.3c0.9,0,1.6-0.7,1.6-1.6c0-0.9-0.7-1.6-1.6-1.6c-6.1,0-11,5-11,11s5,11,11,11
		c9.4,0,14.4-11,8.4-18.2c-0.6-0.7-1.6-0.8-2.3-0.2c-0.7,0.6-0.8,1.6-0.2,2.3c4.3,5,0.7,12.9-6,12.9c-4.3,0-7.8-3.5-7.8-7.8
		S43,36.3,47.3,36.3z M74.1,37.4c2.2,0,4,1.8,4,4c0,0.9,0.7,1.6,1.6,1.6s1.6-0.7,1.6-1.6c0-3.9-3.2-7.2-7.2-7.2
		c-3.9,0-7.2,3.2-7.2,7.2s3.2,7.2,7.2,7.2c0.9,0,1.6-0.7,1.6-1.6c0-0.9-0.7-1.6-1.6-1.6c-2.2,0-4-1.8-4-4
		C70.2,39.1,72,37.4,74.1,37.4z M49.2,64.1c3.1,0,5.7,2.5,5.7,5.7s-2.5,5.7-5.7,5.7s-5.7-2.5-5.7-5.7S46,64.1,49.2,64.1z M49.2,67.3
		c-1.4,0-2.5,1.1-2.5,2.5s1.1,2.5,2.5,2.5s2.5-1.1,2.5-2.5S50.5,67.3,49.2,67.3z M62.4,67.2c0,6.1,5,11,11,11s11-5,11-11
		c0-0.9-0.7-1.6-1.6-1.6c-0.9,0-1.6,0.7-1.6,1.6c0,4.3-3.5,7.8-7.8,7.8c-4.3,0-7.8-3.5-7.8-7.8c0-6.6,7.7-10.2,12.8-6.1
		c0.7,0.6,1.7,0.5,2.3-0.2c0.6-0.7,0.5-1.7-0.2-2.3C73.2,52.8,62.4,57.9,62.4,67.2L62.4,67.2z M101.2,53.4h-4
		c-0.4-8.8-3.9-16.8-9.5-22.8l2.9-2.9c0.6-0.6,0.6-1.6,0-2.3c-0.6-0.6-1.6-0.6-2.3,0l-2.9,2.9c-6.1-5.6-14.1-9.1-22.8-9.5v-4
		c0-0.9-0.7-1.6-1.6-1.6c-0.9,0-1.6,0.7-1.6,1.6v4c-5.5,0.2-10.9,1.7-15.7,4.3c-0.8,0.4-1.1,1.4-0.6,2.2c0.4,0.8,1.4,1.1,2.2,0.6
		c4.8-2.6,10.2-4,15.7-4c18.2,0,33,14.8,33,33c0,0.9,0.7,1.6,1.6,1.6h5.6c0.9,0,1.6-0.7,1.6-1.6C102.8,54.1,102.1,53.4,101.2,53.4z
		 M26.2,26.4l6.2-6.2c0.6-0.6,0.6-1.6,0-2.3c-0.6-0.6-1.6-0.6-2.3,0l-6.2,6.2c-0.6,0.6-0.6,1.6,0,2.3S25.6,27.1,26.2,26.4z
		 M95.8,83.6l-6.2,6.2c-1,1-0.3,2.7,1.1,2.7c0.4,0,0.8-0.2,1.1-0.5l6.2-6.2c0.6-0.6,0.6-1.6,0-2.3C97.4,82.9,96.4,82.9,95.8,83.6
		L95.8,83.6z M26.2,83.6c-0.6-0.6-1.6-0.6-2.3,0c-0.6,0.6-0.6,1.6,0,2.3l6.2,6.2c0.6,0.6,1.6,0.6,2.3,0c0.6-0.6,0.6-1.6,0-2.3
		L26.2,83.6z M95.8,26.4c0.3,0.3,0.7,0.5,1.1,0.5c1.4,0,2.1-1.7,1.1-2.7l-6.2-6.2c-0.6-0.6-1.6-0.6-2.3,0c-0.6,0.6-0.6,1.6,0,2.3
		L95.8,26.4z M90.6,84.6c0.6-0.6,0.6-1.6,0-2.3l-2.8-2.8c3.5-3.8,6.1-8.3,7.7-13.2c0.3-0.8-0.2-1.7-1-2c-0.8-0.3-1.7,0.2-2,1
		C88,78.5,75.6,88,61,88c-18.2,0-33-14.8-33-33c0-8.8,3.4-17.1,9.7-23.3c0.6-0.6,0.6-1.6,0-2.3c0,0-4-4-4-4c-0.6-0.6-1.6-0.6-2.3,0
		c-0.6,0.6-0.6,1.6,0,2.3l2.9,2.9c-5.8,6.3-9.1,14.3-9.5,22.8h-4c-0.9,0-1.6,0.7-1.6,1.6c0,0.9,0.7,1.6,1.6,1.6h4
		c0.4,8.8,3.9,16.8,9.5,22.8l-2.9,2.9c-1,1-0.3,2.7,1.1,2.7c0.4,0,0.8-0.2,1.1-0.5l2.9-2.9c6.1,5.6,14.1,9.1,22.8,9.5v4
		c0,0.9,0.7,1.6,1.6,1.6c0.9,0,1.6-0.7,1.6-1.6v-4c8.8-0.4,16.7-3.8,22.8-9.5l2.9,2.9C88.9,85.2,89.9,85.2,90.6,84.6L90.6,84.6z"/>
</g>
</svg>
