<?xml version="1.0" encoding="utf-8"?>
<!-- Generator: Adobe Illustrator 23.0.1, SVG Export Plug-In . SVG Version: 6.00 Build 0)  -->
<svg version="1.1" id="Layer_1" xmlns:svgjs="http://svgjs.com/svgjs"
	 xmlns="http://www.w3.org/2000/svg" xmlns:xlink="http://www.w3.org/1999/xlink" x="0px" y="0px" viewBox="0 0 121 121"
	 style="enable-background:new 0 0 121 121;" xml:space="preserve">
<style type="text/css">
	.st0{fill:#F44647;}
</style>
<g>
	<path class="st0" d="M64.1,85.1l-5.5,0c-0.9-0.1-1.6-0.8-1.7-1.6l0-0.1l-0.2-2.6c-0.4-0.2-0.9-0.5-1.3-0.7L53,81
		c-0.4,0.2-0.9,0.3-1.4,0.2l-0.1-0.1c-0.4-0.2-0.7-0.5-0.9-0.8l-2.7-4.6c-0.5-0.8-0.2-1.9,0.5-2.5l0.1-0.1l2.3-1.5c0-0.5,0-1,0-1.5
		l-2.1-1.5c-0.8-0.6-1-1.7-0.6-2.5l0,0l2.7-4.7l0.1-0.1c0.5-0.7,1.4-0.9,2.2-0.6l0.1,0l2.4,1.1c0.4-0.3,0.8-0.5,1.3-0.7l0.2-2.7
		c0.1-0.9,0.9-1.7,1.9-1.7l5.5,0c0.9,0.1,1.6,0.8,1.7,1.6l0,0.1l0.2,2.6c0.4,0.2,0.9,0.5,1.3,0.7l2.4-1.1c0.9-0.5,1.9-0.2,2.5,0.7
		l2.8,4.6c0.5,0.8,0.2,1.9-0.5,2.5l0,0l-2.2,1.5c0,0.5,0,1,0,1.6l2,1.5c0.8,0.6,1,1.6,0.5,2.5l0,0l-2.7,4.7l-0.1,0.1
		c-0.5,0.6-1.4,0.9-2.2,0.6l-0.1,0L67.5,80c-0.4,0.3-0.8,0.5-1.3,0.7L66,83.4C65.9,84.3,65.1,85.1,64.1,85.1z M59.9,81.9h3l0.3-3.4
		l1.1-0.5c0.7-0.3,1.3-0.6,1.9-1.1l0.9-0.7l3.1,1.4l1.5-2.6l-2.6-2l0.2-1.2c0.1-0.7,0.1-1.4,0-2.1l0-0.3l-0.1-1l2.8-2l-1.5-2.6
		l-3.1,1.4l-0.9-0.7c-0.6-0.5-1.3-0.8-2-1.1l-1-0.4l-0.3-3.4h-3l-0.3,3.4l-1.1,0.5c-0.7,0.3-1.3,0.6-1.9,1.1l-0.9,0.7l-3.1-1.4
		l-1.5,2.6l2.8,2l-0.2,1.2c-0.1,0.7-0.1,1.4,0,2l0,0.3l0.1,0.9l-1,0.7l-1.9,1.3l1.5,2.6l3.1-1.4l0.9,0.7c0.6,0.5,1.3,0.8,2,1.1
		l1,0.4L59.9,81.9z"/>
	<path class="st0" d="M61.5,77.7c-3.7,0-6.8-3-6.8-6.8c0-3.7,3-6.8,6.8-6.8c0,0,0.1,0,0.1,0c1.8,0,3.5,0.7,4.7,2
		c1.3,1.3,1.9,3,1.9,4.8C68.3,74.6,65.3,77.7,61.5,77.7z M61.5,67.3c-2,0-3.6,1.6-3.6,3.6s1.6,3.6,3.6,3.6c2,0,3.6-1.6,3.6-3.6
		c0-1-0.4-1.9-1-2.5C63.5,67.7,62.6,67.3,61.5,67.3L61.5,67.3z"/>
	<path class="st0" d="M97.9,101.2H23.1c-5.9,0-10.6-4.8-10.6-10.6V27.2c0-5.9,4.8-10.6,10.6-10.6h74.7c5.9,0,10.6,4.8,10.6,10.6
		v63.4C108.5,96.4,103.7,101.2,97.9,101.2z M23.1,19.7c-4.1,0-7.5,3.4-7.5,7.5v63.4c0,4.1,3.4,7.5,7.5,7.5h74.7
		c4.1,0,7.5-3.4,7.5-7.5V27.2c0-4.1-3.4-7.5-7.5-7.5H23.1z"/>
	<path class="st0" d="M106.9,41.9H14.1c-0.9,0-1.6-0.7-1.6-1.6c0-0.9,0.7-1.6,1.6-1.6h92.8c0.9,0,1.6,0.7,1.6,1.6
		C108.5,41.2,107.8,41.9,106.9,41.9z"/>
	<path class="st0" d="M39.6,34.3c-2.8,0-5-2.3-5-5c0-2.8,2.3-5,5-5c2.8,0,5,2.3,5,5C44.6,32.1,42.3,34.3,39.6,34.3z M39.6,27.4
		c-1,0-1.8,0.8-1.8,1.8c0,1,0.8,1.8,1.8,1.8c1,0,1.8-0.8,1.8-1.8C41.4,28.3,40.6,27.4,39.6,27.4z"/>
	<path class="st0" d="M24.2,34.3c-2.8,0-5-2.3-5-5s2.3-5,5-5s5,2.3,5,5S26.9,34.3,24.2,34.3z M24.2,27.4c-1,0-1.8,0.8-1.8,1.8
		c0,1,0.8,1.8,1.8,1.8c1,0,1.8-0.8,1.8-1.8C26,28.2,25.2,27.4,24.2,27.4z"/>
	<path class="st0" d="M55,34.4c-2.8,0-5-2.3-5-5c0-2.8,2.3-5,5-5c2.8,0,5,2.3,5,5C60,32.1,57.8,34.4,55,34.4z M55,27.5
		c-1,0-1.8,0.8-1.8,1.8c0,1,0.8,1.8,1.8,1.8c1,0,1.8-0.8,1.8-1.8C56.8,28.3,56,27.5,55,27.5z"/>
</g>
</svg>
